<?xml version="1.0" standalone="no"?>
<!DOCTYPE svg PUBLIC "-//W3C//DTD SVG 20010904//EN"
 "http://www.w3.org/TR/2001/REC-SVG-20010904/DTD/svg10.dtd">
<svg version="1.0" xmlns="http://www.w3.org/2000/svg"
 width="443.000000pt" height="443.000000pt" viewBox="0 0 443.000000 443.000000"
 preserveAspectRatio="xMidYMid meet">
<metadata>
Created by potrace 1.14, written by Peter Selinger 2001-2017
</metadata>
<g transform="translate(0.000000,443.000000) scale(0.100000,-0.100000)"
fill="#000000" stroke="none">
<path d="M1334 4405 c-2 -5 -5 -39 -6 -75 l-3 -65 -65 1 c-36 0 -67 -3 -70 -7
-3 -5 -5 -38 -5 -74 l1 -65 -73 0 c-69 0 -73 -1 -74 -22 0 -13 0 -79 -1 -148
l0 -126 -72 1 -71 0 -3 -147 -3 -148 -72 0 -72 0 0 -137 c1 -76 0 -142 -2
-148 -2 -6 -32 -9 -73 -7 -67 4 -70 3 -71 -20 0 -13 -2 -79 -2 -148 l-2 -125
-70 0 -70 -1 -3 -147 -3 -147 -73 0 -73 0 2 -137 c0 -76 0 -143 -2 -148 -2 -6
-32 -10 -68 -9 -39 1 -68 -3 -72 -10 -4 -6 -7 -72 -8 -146 l0 -135 -45 -1
c-25 -1 -57 -2 -72 -3 l-28 -1 0 -219 0 -219 64 0 c35 0 69 -3 75 -6 6 -4 9
-33 8 -67 -2 -34 2 -63 8 -67 5 -3 233 -7 505 -8 272 0 500 -2 505 -3 7 0 10
-174 9 -503 0 -277 3 -508 7 -513 4 -6 37 -9 73 -8 l66 2 0 -74 0 -75 76 0 75
0 -2 -72 -2 -73 65 0 c37 0 70 -4 75 -8 4 -5 9 -34 9 -65 1 -32 2 -61 3 -67 1
-11 2476 -13 2487 -2 4 3 7 37 8 74 l1 68 73 -1 72 -1 0 74 0 73 73 0 73 0 0
1835 0 1835 -31 1 c-16 0 -49 0 -72 -1 l-43 -2 0 76 0 76 -76 0 -76 0 3 38 c1
20 1 53 0 73 l-1 35 -132 -1 c-73 0 -139 1 -145 3 -9 3 -13 27 -13 73 0 48 -4
69 -12 70 -23 1 -242 1 -264 0 -18 -1 -20 -7 -19 -71 1 -57 -2 -70 -14 -71 -9
-1 -42 -2 -73 -3 l-58 -1 0 72 c0 40 -3 73 -7 74 -43 5 -262 3 -274 -3 -12 -5
-15 -22 -14 -72 0 -36 -1 -67 -4 -67 -4 -1 -36 -2 -73 -3 -76 -1 -71 -8 -68
92 l1 52 -33 1 c-161 5 -258 3 -262 -6 -2 -5 -3 -38 -2 -72 1 -35 -1 -63 -4
-64 -3 0 -34 -2 -68 -3 -74 -2 -77 2 -77 86 0 32 -4 59 -10 60 -9 3 -204 2
-262 -1 -21 -1 -22 -6 -22 -58 2 -94 6 -88 -66 -88 -35 1 -68 4 -72 8 -4 5 -8
38 -8 75 l0 66 -135 -1 c-74 -1 -141 -2 -148 -2 -9 -1 -12 -20 -11 -65 1 -35
-1 -68 -4 -72 -4 -7 -109 -11 -138 -5 -3 1 -5 33 -4 71 1 68 1 70 -24 71 -148
5 -264 2 -267 -6z"/>
</g>
</svg>
